#N canvas 136 22 1228 756 10;
#X declare -lib mrpeach;
#X obj 237 298 ctlout 34;
#X floatatom 33 221 5 0 0 0 - - -;
#X floatatom 468 177 5 0 0 0 - - -;
#X floatatom 506 175 5 0 0 0 - - -;
#X floatatom 232 173 5 0 0 0 - - -;
#N canvas 87 22 1228 756 sceneshift 0;
#X obj 256 93 change;
#X obj 300 -68 moses 225;
#X obj 216 -66 moses 135;
#X obj 254 165 outlet;
#X obj 220 -109 inlet;
#X msg 224 -15 bang;
#X msg 273 -16 bang;
#X msg 346 -9 bang;
#X obj 223 44 1;
#X obj 287 43 0;
#X obj 342 47 2;
#X obj 418 11 inlet;
#X obj 474 12 inlet;
#X obj 533 11 inlet;
#X connect 0 0 3 0;
#X connect 1 0 6 0;
#X connect 1 1 7 0;
#X connect 2 0 5 0;
#X connect 2 1 1 0;
#X connect 4 0 2 0;
#X connect 5 0 8 0;
#X connect 6 0 9 0;
#X connect 7 0 10 0;
#X connect 8 0 0 0;
#X connect 9 0 0 0;
#X connect 10 0 0 0;
#X connect 11 0 8 1;
#X connect 12 0 9 1;
#X connect 13 0 10 1;
#X restore 237 274 pd sceneshift;
#X msg 326 170 reset;
#N canvas 131 116 985 355 androidstuff 0;
#X obj 18 151 outlet;
#X obj 64 152 outlet;
#X obj 109 152 outlet;
#X obj 326 154 outlet;
#X obj 367 153 outlet;
#X obj 161 150 outlet;
#X obj 202 150 outlet;
#X obj 246 152 outlet;
#X obj 38 -29 import mrpeach;
#X obj 38 25 unpackOSC;
#X obj 20 90 unpack f f f;
#X obj 325 110 unpack f f;
#X obj 38 51 routeOSC /acc /touch /ori;
#X obj 175 114 unpack f f f;
#X obj 38 -2 udpreceive 8000;
#X connect 9 0 12 0;
#X connect 10 0 0 0;
#X connect 10 1 1 0;
#X connect 10 2 2 0;
#X connect 11 0 3 0;
#X connect 11 1 4 0;
#X connect 12 0 10 0;
#X connect 12 1 11 0;
#X connect 12 2 13 0;
#X connect 13 0 5 0;
#X connect 13 1 6 0;
#X connect 13 2 7 0;
#X connect 14 0 9 0;
#X restore 271 27 pd androidstuff;
#N canvas 735 22 450 300 midAngleReset 0;
#X floatatom 122 66 5 0 0 0 - - -;
#X obj 145 130 % 360;
#X obj 145 185 -;
#X obj 204 161 int;
#X msg 205 123 bang;
#X floatatom 144 215 5 0 0 0 - - -;
#X floatatom 142 298 5 0 0 0 - - -;
#X obj 141 268 % 360;
#X obj 143 242 + 540;
#X obj 221 21 inlet;
#X obj 102 23 inlet;
#X obj 130 325 outlet;
#X connect 0 0 1 0;
#X connect 1 0 3 1;
#X connect 1 0 2 0;
#X connect 2 0 5 0;
#X connect 3 0 2 1;
#X connect 4 0 3 0;
#X connect 5 0 8 0;
#X connect 6 0 11 0;
#X connect 7 0 6 0;
#X connect 8 0 7 0;
#X connect 9 0 4 0;
#X connect 10 0 0 0;
#X restore 233 194 pd midAngleReset;
#X obj 34 289 ctlout 16;
#X text 21 307 Ctrl 1 \, multitap;
#X obj 389 298 ctlout 17;
#X obj 480 299 ctlout 18;
#X text 387 318 ctrl 2 \, filter;
#X text 479 320 ctrl 3 \, fuzz;
#N canvas 244 129 450 300 touchscreen 0;
#X obj 36 25 inlet;
#X obj 231 28 inlet;
#X obj 428 237 outlet;
#X obj 349 237 outlet;
#X obj 65 241 outlet;
#X obj 182 261 outlet;
#N canvas 751 186 450 300 changedetect 0;
#X floatatom -568 -130 5 0 0 0 - - -;
#X msg -659 -104 bang;
#X msg -567 -59 1;
#X msg -659 -58 0;
#X obj -565 -27 change;
#X obj -564 12 moses 1;
#X obj -518 75 bng 15 250 50 0 empty empty empty 17 7 0 10 -262144
-1 -1;
#X obj -562 76 bng 15 250 50 0 empty empty empty 17 7 0 10 -262144
-1 -1;
#X obj -616 -172 inlet;
#X obj -457 59 outlet;
#X obj -627 50 outlet;
#X floatatom -472 -138 5 0 0 0 - - -;
#X obj -471 -160 inlet;
#X obj -659 -84 delay 200;
#X connect 0 0 1 0;
#X connect 0 0 2 0;
#X connect 1 0 13 0;
#X connect 2 0 4 0;
#X connect 3 0 4 0;
#X connect 4 0 5 0;
#X connect 5 0 7 0;
#X connect 5 0 10 0;
#X connect 5 1 6 0;
#X connect 5 1 9 0;
#X connect 8 0 0 0;
#X connect 11 0 13 1;
#X connect 12 0 11 0;
#X connect 13 0 3 0;
#X restore 368 146 pd changedetect;
#X msg 463 171 127;
#X msg 340 174 0;
#X obj 227 67 vsl 15 128 120 1000 0 0 empty empty empty 0 -9 0 10 -262144
-1 -1 0 1;
#X obj 37 61 vsl 15 128 80 720 0 0 empty empty empty 0 -9 0 10 -262144
-1 -1 0 1;
#X obj 36 199 maxlib/scale 720 80 0 127;
#X obj 172 234 maxlib/scale 120 1000 0 127;
#X connect 0 0 10 0;
#X connect 0 0 6 0;
#X connect 1 0 9 0;
#X connect 1 0 6 0;
#X connect 6 0 8 0;
#X connect 6 1 7 0;
#X connect 7 0 2 0;
#X connect 8 0 3 0;
#X connect 9 0 12 0;
#X connect 10 0 11 0;
#X connect 11 0 4 0;
#X connect 12 0 5 0;
#X restore 468 200 pd touchscreen;
#X obj 573 303 ctlout 25;
#X obj 663 306 ctlout 53;
#X text 661 325 filter byp;
#X text 572 322 drive byp;
#X text 236 318 scene select;
#N canvas 805 270 450 300 guitarrotate 0;
#X obj 157 22 inlet;
#X obj 165 201 outlet;
#X msg 214 116 0;
#X msg 122 110 127;
#X obj 165 164 change;
#X obj 160 50 hsl 128 15 8 7.9 0 0 empty empty empty -2 -8 0 10 -262144
-1 -1 0 1;
#X obj 158 73 moses 8;
#X obj 270 198 outlet;
#X connect 0 0 5 0;
#X connect 2 0 4 0;
#X connect 2 0 7 0;
#X connect 3 0 4 0;
#X connect 3 0 7 0;
#X connect 4 0 1 0;
#X connect 5 0 6 0;
#X connect 6 0 3 0;
#X connect 6 1 2 0;
#X restore 33 241 pd guitarrotate;
#X floatatom 34 264 5 0 0 0 - - -;
#X floatatom 244 245 5 0 0 0 - - -;
#X floatatom 280 245 5 0 0 0 - - -;
#X floatatom 318 245 5 0 0 0 - - -;
#X text 245 226 scen - position;
#X floatatom 655 234 5 0 0 0 - - -;
#N canvas 182 371 450 300 tap 1;
#N canvas 751 186 450 300 changedetect 1;
#X floatatom -568 -130 5 0 0 0 - - -;
#X msg -659 -104 bang;
#X msg -567 -59 1;
#X msg -659 -58 0;
#X obj -565 -27 change;
#X obj -564 12 moses 1;
#X obj -518 75 bng 15 250 50 0 empty empty empty 17 7 0 10 -262144
-1 -1;
#X obj -562 76 bng 15 250 50 0 empty empty empty 17 7 0 10 -262144
-1 -1;
#X obj -616 -172 inlet;
#X obj -457 59 outlet;
#X obj -627 50 outlet;
#X floatatom -472 -138 5 0 0 0 - - -;
#X obj -471 -160 inlet;
#X obj -659 -84 delay 200;
#X connect 0 0 1 0;
#X connect 0 0 2 0;
#X connect 1 0 13 0;
#X connect 2 0 4 0;
#X connect 3 0 4 0;
#X connect 4 0 5 0;
#X connect 5 0 7 0;
#X connect 5 0 10 0;
#X connect 5 1 6 0;
#X connect 5 1 9 0;
#X connect 8 0 0 0;
#X connect 11 0 13 1;
#X connect 12 0 11 0;
#X connect 13 0 3 0;
#X restore 51 71 pd changedetect;
#N canvas 751 186 450 300 changedetect 0;
#X floatatom -568 -130 5 0 0 0 - - -;
#X msg -659 -104 bang;
#X msg -567 -59 1;
#X msg -659 -58 0;
#X obj -565 -27 change;
#X obj -564 12 moses 1;
#X obj -518 75 bng 15 250 50 0 empty empty empty 17 7 0 10 -262144
-1 -1;
#X obj -562 76 bng 15 250 50 0 empty empty empty 17 7 0 10 -262144
-1 -1;
#X obj -616 -172 inlet;
#X obj -457 59 outlet;
#X obj -627 50 outlet;
#X floatatom -472 -138 5 0 0 0 - - -;
#X obj -471 -160 inlet;
#X obj -659 -84 delay 200;
#X connect 0 0 1 0;
#X connect 0 0 2 0;
#X connect 1 0 13 0;
#X connect 2 0 4 0;
#X connect 3 0 4 0;
#X connect 4 0 5 0;
#X connect 5 0 7 0;
#X connect 5 0 10 0;
#X connect 5 1 6 0;
#X connect 5 1 9 0;
#X connect 8 0 0 0;
#X connect 11 0 13 1;
#X connect 12 0 11 0;
#X connect 13 0 3 0;
#X restore 52 129 pd changedetect;
#X obj 175 133 bng 15 250 50 0 empty empty empty 17 7 0 10 -262144
-1 -1;
#X obj 51 164 bng 15 250 50 0 empty empty empty 17 7 0 10 -262144 -1
-1;
#X obj 139 161 bng 15 250 50 0 empty empty empty 17 7 0 10 -262144
-1 -1;
#X floatatom 92 245 5 0 0 0 - - -;
#X obj 151 227 int;
#X msg 137 50 60;
#X msg 139 109 150;
#X obj 46 16 inlet;
#X msg 276 63 1;
#X obj 277 83 change;
#X obj 175 259 outlet;
#X text 319 78 to set the inital values;
#X text -6 148 reset counter;
#N canvas 644 329 450 300 count 0;
#X obj 73 43 inlet;
#X msg 73 71 bang;
#X obj 76 135 + 1;
#X floatatom 76 159 5 0 0 0 - - -;
#X obj 75 110 int;
#X msg 150 71 -1;
#X obj 152 44 inlet;
#X text 182 73 reset;
#X obj 78 194 outlet;
#X text 63 17 count each bang until reset;
#X connect 0 0 1 0;
#X connect 1 0 4 0;
#X connect 2 0 3 0;
#X connect 3 0 4 1;
#X connect 3 0 8 0;
#X connect 4 0 2 0;
#X connect 5 0 4 0;
#X connect 6 0 5 0;
#X restore 185 198 pd count;
#X connect 0 0 1 0;
#X connect 0 1 1 0;
#X connect 0 1 2 0;
#X connect 1 0 3 0;
#X connect 1 1 4 0;
#X connect 2 0 15 0;
#X connect 3 0 6 0;
#X connect 3 0 15 1;
#X connect 6 0 5 0;
#X connect 6 0 12 0;
#X connect 7 0 0 1;
#X connect 8 0 1 1;
#X connect 9 0 0 0;
#X connect 9 0 10 0;
#X connect 10 0 11 0;
#X connect 11 0 8 0;
#X connect 11 0 7 0;
#X connect 15 0 6 1;
#X restore 655 212 pd tap;
#X connect 1 0 21 0;
#X connect 2 0 15 0;
#X connect 2 0 28 0;
#X connect 3 0 15 1;
#X connect 3 0 28 0;
#X connect 4 0 8 0;
#X connect 5 0 0 0;
#X connect 6 0 8 1;
#X connect 7 1 1 0;
#X connect 7 3 4 0;
#X connect 7 6 2 0;
#X connect 7 7 3 0;
#X connect 8 0 5 0;
#X connect 15 0 11 0;
#X connect 15 1 12 0;
#X connect 15 2 16 0;
#X connect 15 2 17 0;
#X connect 15 3 16 0;
#X connect 15 3 17 0;
#X connect 21 0 22 0;
#X connect 22 0 9 0;
#X connect 23 0 5 1;
#X connect 24 0 5 2;
#X connect 25 0 5 3;
#X connect 28 0 27 0;
